#N canvas 2 25 1438 847 12;
#X declare -lib timbreID/timbreIDLib;
#X obj 45 494 perceptron;
#N canvas 615 49 825 823 dataset 0;
#X obj 407 285 text define \$0-dataset;
#X obj 62 306 text get \$0-dataset;
#X obj 62 180 until;
#X obj 62 218 f;
#X obj 140 234 + 1;
#X obj 153 188 sel 0;
#X obj 62 264 t f b;
#X obj 62 151 t b b;
#X obj 62 129 bng 19 250 50 0 empty empty empty 0 -10 0 12 #fcfcfc #000000 #000000;
#X obj 174 248 text size \$0-dataset;
#X obj 62 330 outlet;
#X obj 62 104 inlet;
#X obj 375 112 t b b;
#X obj 574 79 loadbang;
#X obj 142 272 mod, f 5;
#X obj 202 273 s datasize;
#X obj 331 84 bng 19 250 50 0 empty empty empty 0 -10 0 12 #fcfcfc #000000 #000000;
#X msg 136 153 0;
#X obj 574 126 t b b;
#X obj 574 101 bng 19 250 50 0 empty empty empty 0 -10 0 12 #fcfcfc #000000 #000000;
#X msg 407 197 read data/iris-training.txt;
#X msg 433 247 read data/iris-test.txt;
#X obj 628 155 r classification;
#X obj 628 183 t b b;
#X msg 608 285 read analisys2.txt;
#X connect 1 0 10 0;
#X connect 2 0 3 0;
#X connect 3 0 4 0;
#X connect 3 0 6 0;
#X connect 4 0 14 0;
#X connect 5 0 2 1;
#X connect 6 0 1 0;
#X connect 7 0 2 0;
#X connect 8 0 7 0;
#X connect 9 0 14 1;
#X connect 9 0 15 0;
#X connect 11 0 8 0;
#X connect 12 0 9 0;
#X connect 12 1 20 0;
#X connect 13 0 19 0;
#X connect 14 0 3 1;
#X connect 14 0 5 0;
#X connect 16 0 12 0;
#X connect 17 0 3 1;
#X connect 18 0 9 0;
#X connect 18 1 24 0;
#X connect 19 0 18 0;
#X connect 20 0 0 0;
#X connect 21 0 0 0;
#X connect 22 0 23 0;
#X connect 23 1 21 0;
#X connect 24 0 0 0;
#X restore 45 388 pd dataset;
#X msg 1314 354 datasize \$1;
#X obj 1314 333 r datasize;
#X obj 45 357 bng 19 250 50 0 empty empty empty 0 -10 0 12 #00ff04 #000000 #000000;
#N canvas 71 25 1369 847 real-time-analysis 0;
#N canvas 339 182 793 521 live-onset 0;
#X obj 191 244 bark~ 1024 64 1;
#X msg 425 115 mask 4 0.75;
#X msg 435 191 filter_range 0 20;
#X obj 353 34 loadbang;
#X obj 191 267 outlet;
#X msg 437 231 minvel 2;
#X obj 529 85 tgl 15 0 empty empty empty 17 7 0 10 #fcfcfc #000000 #000000 0 1;
#X msg 529 105 loudness \$1;
#X obj 633 86 tgl 15 0 empty empty empty 17 7 0 10 #fcfcfc #000000 #000000 0 1;
#X msg 633 106 filter_avg \$1;
#X msg 412 72 thresh -1 6.5;
#X obj 188 72 r~ sig1;
#X msg 430 151 debounce 300;
#X connect 0 0 4 0;
#X connect 1 0 0 0;
#X connect 2 0 0 0;
#X connect 3 0 10 0;
#X connect 3 0 12 0;
#X connect 3 0 2 0;
#X connect 3 0 1 0;
#X connect 3 0 5 0;
#X connect 3 0 6 0;
#X connect 3 0 8 0;
#X connect 5 0 0 0;
#X connect 6 0 7 0;
#X connect 8 0 9 0;
#X connect 10 0 0 0;
#X connect 11 0 0 0;
#X connect 12 0 0 0;
#X restore 763 58 pd live-onset;
#X obj 228 263 barkSpecKurtosis~ 1024 0.5;
#X obj 764 262 barkSpecSpread~ 1024 0.5;
#X obj 228 333 pack f f f, f 77;
#X obj 228 289 * 0.1;
#X obj 764 288 * 0.1;
#X obj 330 573 f;
#X msg 349 550 0;
#X obj 330 597 + 1;
#X floatatom 399 644 5 0 0 0 - - - 0;
#X obj 228 542 t l b, f 15;
#X obj 285 686 text set \$0-analisys;
#X obj 226 727 print analisys;
#X obj 330 620 mod 30;
#X obj 233 75 r~ sig1;
#X obj 529 442 spigot;
#X obj 568 418 tgl 19 0 empty empty empty 0 -10 0 12 #fcfcfc #000000 #000000 0 1;
#X obj 529 529 s \$0-perceptron;
#X obj 497 261 barkSpecSlope~ 1024 0.5;
#X obj 228 596 list append 1;
#X obj 529 506 list append 0;
#X obj 228 508 spigot;
#X obj 267 484 tgl 19 0 empty empty empty 0 -10 0 12 #fcfcfc #000000 #000000 0 1;
#X obj 568 395 r class;
#X obj 630 418 sel 1;
#X msg 630 441 0;
#X obj 267 438 loadbang;
#X msg 267 462 1;
#X msg 661 440 1;
#X connect 0 0 1 0;
#X connect 0 0 2 0;
#X connect 0 0 18 0;
#X connect 1 0 4 0;
#X connect 2 0 5 0;
#X connect 3 0 15 0;
#X connect 3 0 21 0;
#X connect 4 0 3 0;
#X connect 5 0 3 2;
#X connect 6 0 8 0;
#X connect 7 0 6 1;
#X connect 8 0 6 1;
#X connect 8 0 13 0;
#X connect 10 0 19 0;
#X connect 10 1 6 0;
#X connect 13 0 9 0;
#X connect 13 0 11 1;
#X connect 14 0 1 0;
#X connect 14 0 2 0;
#X connect 14 0 18 0;
#X connect 15 0 20 0;
#X connect 16 0 15 1;
#X connect 18 0 3 1;
#X connect 19 0 11 0;
#X connect 19 0 12 0;
#X connect 20 0 17 0;
#X connect 21 0 10 0;
#X connect 22 0 21 1;
#X connect 23 0 16 0;
#X connect 23 0 24 0;
#X connect 24 0 25 0;
#X connect 24 1 28 0;
#X connect 25 0 22 0;
#X connect 26 0 27 0;
#X connect 27 0 22 0;
#X connect 28 0 22 0;
#X restore 23 248 pd real-time-analysis;
#X obj 26 118 openpanel;
#N canvas 406 439 756 356 sound 0;
#X obj 51 119 soundfiler;
#X obj 51 40 t a b;
#X obj 51 16 inlet;
#X obj 51 69 pack s f \$0;
#X floatatom 198 162 15 0 0 1 samples - - 0;
#X obj 198 185 / 44100;
#X floatatom 199 207 15 0 0 1 segundos - - 0;
#X msg 51 96 read -resize \$1 \$3-sound1;
#X obj 49 171 table \$0-sound1;
#X connect 0 0 4 0;
#X connect 1 0 3 0;
#X connect 2 0 1 0;
#X connect 3 0 7 0;
#X connect 4 0 5 0;
#X connect 5 0 6 0;
#X connect 7 0 0 0;
#X restore 26 139 pd sound;
#X msg 25 171 stop;
#X msg 67 170 bang;
#X obj 26 96 bng 19 250 50 0 empty empty loud_sound_file 20 9 0 12 #00ff04 #000000 #000000;
#X msg 1153 234 bias 1;
#X obj 1001 80 tgl 19 0 empty empty empty 0 -10 0 12 #fcfcfc #000000 #000000 0 1;
#X msg 1237 336 zero;
#X msg 1215 297 reset;
#X msg 1276 445 print;
#X floatatom 45 573 5 0 0 1 classification - - 0;
#X obj 25 196 tabplay~ \$0-sound1;
#X obj 258 222 text define \$0-analisys;
#X msg 279 156 clear;
#X obj 463 117 tgl 19 0 empty empty empty 0 -10 0 12 #fcfcfc #000000 #000000 0 1;
#X obj 463 140 s class;
#X obj 45 326 until;
#X msg 289 188 write analisys2.txt;
#X text 38 652 0 = agogo;
#X text 38 672 1 = berimbau;
#X msg 258 127 read analisys2.txt;
#X msg 45 626 agogo;
#N canvas 256 104 697 646 class 0;
#X obj 277 271 outlet;
#X obj 281 112 inlet;
#X obj 281 135 sel 0 1;
#X msg 279 211 set agogo;
#X msg 371 213 set berimbau;
#X connect 1 0 2 0;
#X connect 2 0 3 0;
#X connect 2 1 4 0;
#X connect 3 0 0 0;
#X connect 4 0 0 0;
#X restore 45 603 pd class;
#X text 255 61 ou carregar uma análise pré-salva em um arquivo de texto, f 17;
#X text 23 29 1 - carregar \, tocar um arquivo de áudio e salvar a análise em um arquivo de texto, f 24;
#X text 86 292 2 - treinar a rede;
#X text 69 360 <- input data for training and classification;
#X obj 114 525 route weights wbias error;
#N canvas 901 231 692 629 erro 0;
#X obj 382 64 array size \$0-erro;
#X obj 103 276 array set \$0-erro;
#X obj 100 98 r erro;
#X obj 140 154 f;
#X obj 101 122 t f b, f 6;
#X obj 141 177 + 1;
#X obj 184 199 mod 10;
#X floatatom 183 221 5 0 0 0 - - - 0;
#X msg 192 145 0;
#X obj 223 176 r epochs;
#X obj 382 41 r epochs;
#X obj 256 83 t f b;
#X msg 256 59 0;
#X obj 256 35 r reset;
#X obj 336 199 until;
#X obj 336 173 r epochs;
#X connect 2 0 4 0;
#X connect 3 0 5 0;
#X connect 4 0 1 0;
#X connect 4 1 3 0;
#X connect 5 0 6 0;
#X connect 6 0 7 0;
#X connect 6 0 3 1;
#X connect 6 0 1 1;
#X connect 8 0 3 1;
#X connect 9 0 6 1;
#X connect 10 0 0 0;
#X connect 11 0 1 0;
#X connect 11 1 3 0;
#X connect 12 0 11 0;
#X connect 13 0 12 0;
#X connect 14 0 12 0;
#X connect 15 0 14 0;
#X restore 228 569 pd erro;
#X floatatom 1130 73 5 0 0 0 - - - 0;
#X msg 1132 152 epochs \$1;
#X obj 1141 105 s epochs;
#X obj 226 541 s erro;
#X msg 1145 199 threshold 0.5;
#N canvas 526 262 450 278 (subpatch) 0;
#X array \$0-erro 500 float 0;
#X coords 0 5 499 -1 400 200 1 0 0;
#X restore 514 611 graph;
#X msg 1009 137 weights 3;
#X obj 25 222 dac~;
#X obj 65 222 s~ sig1;
#X text 688 820 épocas;
#X text 375 692 quantidade de erros;
#X obj 1019 21 declare -lib timbreID/timbreIDLib;
#X msg 1184 262 learning 0.1;
#X msg 45 291 50;
#X msg 1001 104 training \$1;
#X connect 0 0 16 0;
#X connect 1 0 0 0;
#X connect 2 0 0 0;
#X connect 3 0 2 0;
#X connect 4 0 1 0;
#X connect 6 0 7 0;
#X connect 8 0 17 0;
#X connect 9 0 17 0;
#X connect 10 0 6 0;
#X connect 11 0 0 0;
#X connect 12 0 49 0;
#X connect 13 0 0 0;
#X connect 14 0 0 0;
#X connect 15 0 0 0;
#X connect 16 0 28 0;
#X connect 17 0 42 0;
#X connect 17 0 42 1;
#X connect 17 0 43 0;
#X connect 19 0 18 0;
#X connect 20 0 21 0;
#X connect 22 0 4 0;
#X connect 23 0 18 0;
#X connect 26 0 18 0;
#X connect 28 0 27 0;
#X connect 33 2 38 0;
#X connect 35 0 36 0;
#X connect 35 0 37 0;
#X connect 36 0 0 0;
#X connect 39 0 0 0;
#X connect 41 0 0 0;
#X connect 47 0 0 0;
#X connect 48 0 22 0;
#X connect 49 0 0 0;
